<svg width="146" height="112" viewBox="0 0 146 112" fill="none" xmlns="http://www.w3.org/2000/svg">
    <mask id="mask0_11_70" style="mask-type:luminance" maskUnits="userSpaceOnUse" x="53" y="0" width="93" height="112">
        <path d="M53.6966 0H146V111.037H53.6966V0Z" fill="white"/>
    </mask>
    <g mask="url(#mask0_11_70)">
        <path d="M121.255 0.00839233H78.7131C65.1009 0.00839233 54.0734 11.4197 54.0734 25.4921V85.9346C54.0734 100.011 65.1009 111.418 78.709 111.418H121.251C134.859 111.418 145.887 100.011 145.887 85.9346V25.4921C145.891 11.4197 134.863 0.00839233 121.255 0.00839233Z" fill="#B4DBDC"/>
    </g>
    <mask id="mask1_11_70" style="mask-type:luminance" maskUnits="userSpaceOnUse" x="0" y="6" width="108" height="99">
        <path d="M0.556396 6.85181H107.627V104.479H0.556396V6.85181Z" fill="white"/>
    </mask>
    <g mask="url(#mask1_11_70)">
        <path d="M92.5155 17.4543C92.5155 22.9483 88.2131 27.3988 82.9019 27.3988C77.5907 27.3988 73.2923 22.9483 73.2923 17.4543C73.2923 11.9603 77.5988 7.51395 82.9019 7.51395C88.2131 7.51395 92.5155 11.9603 92.5155 17.4543ZM25.2365 7.51395C19.9254 7.51395 15.627 11.9603 15.627 17.4543C15.627 22.9483 19.9254 27.3988 25.2365 27.3988C30.5477 27.3988 34.8501 22.9483 34.8501 17.4543C34.8501 11.9603 30.5477 7.51395 25.2365 7.51395ZM107.582 50.8081C107.582 47.4262 104.933 44.6813 101.659 44.6813C98.3898 44.6813 95.7362 47.422 95.7362 50.8081C95.7362 52.4258 96.3358 53.8925 97.3243 54.9863C95.2825 77.8172 76.663 95.7493 54.0692 95.7493C31.4755 95.7493 12.8519 77.8172 10.8101 54.9863C11.7986 53.8925 12.4022 52.4258 12.4022 50.8081C12.4022 47.4262 9.75271 44.6813 6.47526 44.6813C3.20591 44.6855 0.556396 47.4262 0.556396 50.8081C0.556396 52.8239 1.50034 54.6133 2.95068 55.7322C5.36117 82.7204 27.3675 103.921 54.0733 103.921C80.779 103.921 102.785 82.7204 105.196 55.7322C106.646 54.6133 107.582 52.8281 107.582 50.8081Z" fill="black"/>
    </g>
</svg>
