<svg width="53" height="53" viewBox="0 0 53 53" fill="none" xmlns="http://www.w3.org/2000/svg">
    <path d="M14.9177 12.6394V1.52832M37.1399 12.6394V1.52832M12.1399 23.7505H39.9177M6.58436 51.5283H45.4733C46.9467 51.5283 48.3598 50.943 49.4016 49.9011C50.4435 48.8593 51.0288 47.4462 51.0288 45.9728V12.6394C51.0288 11.166 50.4435 9.75293 49.4016 8.71106C48.3598 7.66919 46.9467 7.08388 45.4733 7.08388H6.58436C5.11094 7.08388 3.69786 7.66919 2.65599 8.71106C1.61412 9.75293 1.02881 11.166 1.02881 12.6394V45.9728C1.02881 47.4462 1.61412 48.8593 2.65599 49.9011C3.69786 50.943 5.11094 51.5283 6.58436 51.5283Z" stroke="black" stroke-width="2" stroke-linecap="round" stroke-linejoin="round"/>
</svg>
