<svg width="24" height="24" viewBox="0 0 52 52" fill="none" xmlns="http://www.w3.org/2000/svg">
    <path d="M1 26L6.55556 20.4444M6.55556 20.4444L26 1L45.4444 20.4444M6.55556 20.4444V48.2222C6.55556 48.9589 6.84821 49.6655 7.36915 50.1864C7.89008 50.7073 8.59662 51 9.33333 51H17.6667M45.4444 20.4444L51 26M45.4444 20.4444V48.2222C45.4444 48.9589 45.1518 49.6655 44.6309 50.1864C44.1099 50.7073 43.4034 51 42.6667 51H34.3333M17.6667 51C18.4034 51 19.1099 50.7073 19.6309 50.1864C20.1518 49.6655 20.4444 48.9589 20.4444 48.2222V37.1111C20.4444 36.3744 20.7371 35.6679 21.258 35.1469C21.779 34.626 22.4855 34.3333 23.2222 34.3333H28.7778C29.5145 34.3333 30.221 34.626 30.742 35.1469C31.2629 35.6679 31.5556 36.3744 31.5556 37.1111V48.2222C31.5556 48.9589 31.8482 49.6655 32.3691 50.1864C32.8901 50.7073 33.5966 51 34.3333 51M17.6667 51H34.3333" stroke="black" stroke-width="2" stroke-linecap="round" stroke-linejoin="round"/>
</svg>
