<svg width="24" height="24" viewBox="0 0 52 47" fill="none" xmlns="http://www.w3.org/2000/svg">
    <path d="M38.5 46H51V40.375C50.9999 38.6215 50.5142 36.9116 49.6103 35.483C48.7065 34.0544 47.4295 32.9781 45.9569 32.4037C44.4842 31.8293 42.8891 31.7853 41.3932 32.2779C39.8972 32.7704 38.5749 33.7751 37.61 35.1522M38.5 46H13.5M38.5 46V40.375C38.5 38.53 38.185 36.7666 37.61 35.1522M37.61 35.1522C36.6816 32.5421 35.0794 30.3047 33.01 28.7288C30.9406 27.1528 28.499 26.3105 26 26.3105C23.501 26.3105 21.0594 27.1528 18.99 28.7288C16.9206 30.3047 15.3184 32.5421 14.39 35.1522M13.5 46H1V40.375C1.00011 38.6215 1.48584 36.9116 2.38965 35.483C3.29347 34.0544 4.57046 32.9781 6.04313 32.4037C7.51579 31.8293 9.11094 31.7853 10.6068 32.2779C12.1027 32.7704 13.4251 33.7751 14.39 35.1522M13.5 46V40.375C13.5 38.53 13.815 36.7666 14.39 35.1522M33.5 9.4375C33.5 11.6753 32.7098 13.8214 31.3033 15.4037C29.8968 16.9861 27.9891 17.875 26 17.875C24.0109 17.875 22.1032 16.9861 20.6967 15.4037C19.2902 13.8214 18.5 11.6753 18.5 9.4375C18.5 7.19974 19.2902 5.05362 20.6967 3.47129C22.1032 1.88895 24.0109 1 26 1C27.9891 1 29.8968 1.88895 31.3033 3.47129C32.7098 5.05362 33.5 7.19974 33.5 9.4375ZM48.5 17.875C48.5 19.3668 47.9732 20.7976 47.0355 21.8525C46.0979 22.9074 44.8261 23.5 43.5 23.5C42.1739 23.5 40.9021 22.9074 39.9645 21.8525C39.0268 20.7976 38.5 19.3668 38.5 17.875C38.5 16.3832 39.0268 14.9524 39.9645 13.8975C40.9021 12.8426 42.1739 12.25 43.5 12.25C44.8261 12.25 46.0979 12.8426 47.0355 13.8975C47.9732 14.9524 48.5 16.3832 48.5 17.875ZM13.5 17.875C13.5 19.3668 12.9732 20.7976 12.0355 21.8525C11.0979 22.9074 9.82608 23.5 8.5 23.5C7.17392 23.5 5.90215 22.9074 4.96447 21.8525C4.02678 20.7976 3.5 19.3668 3.5 17.875C3.5 16.3832 4.02678 14.9524 4.96447 13.8975C5.90215 12.8426 7.17392 12.25 8.5 12.25C9.82608 12.25 11.0979 12.8426 12.0355 13.8975C12.9732 14.9524 13.5 16.3832 13.5 17.875Z" stroke="black" stroke-width="2" stroke-linecap="round" stroke-linejoin="round"/>
</svg>
